<?xml version="1.0" encoding="UTF-8" standalone="no"?>
<!DOCTYPE svg PUBLIC "-//W3C//DTD SVG 20010904//EN"
              "http://www.w3.org/TR/2001/REC-SVG-20010904/DTD/svg10.dtd">

<svg xmlns="http://www.w3.org/2000/svg"
     width="69.4444in" height="10.6667in"
     viewBox="0 0 5000 768">
  <path id="Unnamed" class="plain"
        fill="none" stroke="black" stroke-width="1"
        d="M 0.00,518.00
           C 0.00,518.00 974.00,518.00 974.00,518.00" />
  <path id="Path" class="plain"
        fill="none" stroke="black" stroke-width="1"
        d="M 973.75,518.00
           C 973.75,518.00 1029.50,522.00 1029.50,522.00
             1029.50,522.00 1073.75,528.00 1073.75,528.00
             1073.75,528.00 1119.25,533.00 1119.25,533.00
             1119.25,533.00 1169.50,533.00 1169.50,533.00
             1169.50,533.00 1213.50,524.00 1213.50,524.00
             1213.50,524.00 1224.00,518.00 1224.00,518.00" />

  <path id="Path #1" class="plain"
        fill="none" stroke="black" stroke-width="1"
        d="M 1261.00,518.00
           C 1261.00,518.00 1306.00,518.00 1306.00,518.00
             1306.00,518.00 1497.00,518.00 1497.00,518.00" />

  <path id="Path #2" class="plain"
        fill="none" stroke="black" stroke-width="1"
        d="M 1535.00,525.00
           C 1535.00,525.00 1579.00,523.00 1579.00,523.00
             1579.00,523.00 1671.75,520.00 1671.75,520.00
             1671.75,520.00 1701.00,518.00 1701.00,518.00
             1701.00,518.00 1759.25,518.00 1759.25,518.00
             1759.25,518.00 1774.75,513.00 1774.75,513.00
             1774.75,513.00 1788.00,510.00 1788.00,510.00
             1788.00,510.00 1802.75,514.00 1802.75,514.00
             1802.75,514.00 1831.75,518.00 1831.75,518.00
             1831.75,518.00 1873.00,518.00 1873.00,518.00
             1873.00,518.00 1893.25,510.00 1893.25,510.00
             1893.25,510.00 1907.25,507.00 1907.25,507.00
             1907.25,507.00 1922.25,510.00 1922.25,510.00
             1922.25,510.00 1943.00,518.00 1943.00,518.00
             1943.00,518.00 1984.00,518.00 1984.00,518.00
             1984.00,518.00 2011.50,514.00 2011.50,514.00
             2011.50,514.00 2038.75,510.00 2038.75,510.00
             2038.75,510.00 2068.75,505.00 2068.75,505.00
             2068.75,505.00 2103.00,500.00 2103.00,500.00" />

  <path id="Path #3" class="plain"
        fill="none" stroke="black" stroke-width="1"
        d="M 2152.00,518.00
           C 2152.00,518.00 2221.25,518.00 2221.25,518.00
             2221.25,518.00 2267.50,513.50 2267.50,513.50
             2267.50,513.50 2310.00,503.50 2310.00,503.50
             2310.00,503.50 2327.50,500.00 2327.50,500.00
             2327.50,500.00 2358.00,519.00 2358.00,519.00
             2358.00,519.00 2382.00,526.00 2382.00,526.00
             2382.00,526.00 2411.00,528.00 2411.00,528.00
             2411.00,528.00 2439.00,524.00 2439.00,524.00
             2439.00,524.00 2464.75,512.00 2464.75,512.00
             2464.75,512.00 2493.50,503.00 2493.50,503.00
             2493.50,503.00 2543.75,506.50 2543.75,506.50
             2543.75,506.50 2579.50,512.50 2579.50,512.50
             2579.50,512.50 2624.00,519.75 2624.00,519.75
             2624.00,519.75 2664.25,518.00 2664.25,518.00
             2664.25,518.00 2773.25,518.00 2773.25,518.00
             2773.25,518.00 2913.75,518.00 2913.75,518.00
             2913.75,518.00 3019.50,518.00 3019.50,518.00" />
</svg>
