<?xml version="1.0" encoding="UTF-8" standalone="no"?>
<!DOCTYPE svg PUBLIC "-//W3C//DTD SVG 20010904//EN"
              "http://www.w3.org/TR/2001/REC-SVG-20010904/DTD/svg10.dtd">

<svg xmlns="http://www.w3.org/2000/svg"
     width="69.4444in" height="10.6667in"
     viewBox="0 0 5000 768">
  <path id="Unnamed"
        fill="none" stroke="black" stroke-width="1"
        d="M -100.00,410.00
           C 0.00,410.00 476.00,410.00 476.00,410.00
             476.00,410.00 579.00,401.00 579.00,401.00
             579.00,401.00 629.00,385.00 629.00,385.00
             629.00,385.00 665.00,371.00 665.00,371.00
             665.00,371.00 688.00,358.00 688.00,358.00" />

  <path id="Path"
        fill="none" stroke="black" stroke-width="1"
        d="M 815.00,360.00
           C 815.00,360.00 1006.00,382.00 1006.00,382.00
             1006.00,382.00 1060.00,392.00 1060.00,392.00
             1060.00,392.00 1105.00,415.00 1105.00,415.00
             1105.00,415.00 1149.00,447.00 1149.00,447.00
             1149.00,447.00 1213.00,472.00 1213.00,472.00
             1213.00,472.00 1292.00,473.00 1292.00,473.00
             1292.00,473.00 1374.00,473.00 1374.00,473.00
             1374.00,473.00 1476.00,469.00 1476.00,469.00
             1476.00,469.00 1566.00,456.00 1566.00,456.00
             1566.00,456.00 1642.00,434.00 1642.00,434.00
             1642.00,434.00 1702.00,408.00 1702.00,408.00
             1702.00,408.00 1751.00,378.00 1751.00,378.00
             1751.00,378.00 1804.00,332.00 1804.00,332.00" />

  <path id="Path2"
        fill="none" stroke="black" stroke-width="1"
        d="M 1930.00,301.00
           C 1930.00,301.00 1977.00,288.00 1977.00,288.00
             1977.00,288.00 2055.00,293.00 2055.00,293.00
             2055.00,293.00 2105.00,316.00 2105.00,316.00
             2105.00,316.00 2178.00,369.00 2178.00,369.00
             2178.00,369.00 2276.00,428.00 2276.00,428.00
             2276.00,428.00 2354.00,456.00 2354.00,456.00
             2354.00,456.00 2501.00,492.00 2501.00,492.00
             2501.00,492.00 2667.00,508.00 2667.00,508.00
             2667.00,508.00 2786.00,510.00 2786.00,510.00
             2786.00,510.00 3094.00,517.00 3094.00,517.00
             3094.00,517.00 3291.00,519.00 3291.00,519.00
             3291.00,519.00 3461.00,517.00 3461.00,517.00
             3461.00,517.00 3597.00,502.00 3597.00,502.00
             3597.00,502.00 3687.00,482.00 3687.00,482.00
             3687.00,482.00 3790.00,448.00 3790.00,448.00
             3790.00,448.00 3882.00,403.00 3882.00,403.00
             3882.00,403.00 3977.00,348.00 3977.00,348.00
             3977.00,348.00 4032.00,330.00 4032.00,330.00
             4032.00,330.00 4096.00,325.00 4096.00,325.00" />

  <path id="Path3"
        fill="none" stroke="black" stroke-width="1"
        d="M 4323.00,367.00
           C 4323.00,367.00 4426.00,381.00 4426.00,381.00
             4426.00,381.00 4517.00,391.00 4517.00,391.00
             4517.00,391.00 4590.00,393.00 4590.00,393.00
             4590.00,393.00 4669.00,393.00 4669.00,393.00
             4669.00,393.00 4737.00,393.00 4737.00,393.00
             4737.00,393.00 4824.00,380.00 4824.00,380.00
             4824.00,380.00 4887.00,331.00 4887.00,331.00
             4887.00,331.00 4888.00,150.00 4888.00,150.00
             4888.00,150.00 4946.00,136.00 4946.00,136.00
             4946.00,136.00 4976.00,139.00 4976.00,139.00" />
</svg>
