<?xml version="1.0" encoding="UTF-8" standalone="no"?>
<!DOCTYPE svg PUBLIC "-//W3C//DTD SVG 20010904//EN"
              "http://www.w3.org/TR/2001/REC-SVG-20010904/DTD/svg10.dtd">

<svg xmlns="http://www.w3.org/2000/svg"
     width="69.4444in" height="10.6667in"
     viewBox="0 0 5000 768">
  <path id="Start" class="plain"
      fill="none" stroke="black" stroke-width="1"
      d="M 0.00,518.00
         C 0.00,518.00 1016.00,518.00 1016.00,518.00
           1016.00,518.00 2004.00,518.00 2004.00,518.00" />

  <path id="Ramp1" class="little_ramp"
        fill="none" stroke="black" stroke-width="1"
        d="M 600.00,518.00
           C 600.00,518.00 746.00,518.00 746.00,518.00
             746.00,518.00 746.67,452.00 746.67,452.00
             746.67,452.00 600.00,518.00 600.00,518.00" />

  <path id="Ramp2" class="little_ramp"
        fill="none" stroke="black" stroke-width="1"
        d="M 1126.67,518.00
           C 1126.67,518.00 1440.67,518.00 1440.67,518.00
             1440.67,518.00 1439.33,388.00 1439.33,388.00
             1439.33,388.00 1126.67,518.00 1126.67,518.00" />

  <path id="Bumps" class="plain"
        fill="none" stroke="black" stroke-width="1"
        d="M 2003.33,518.00
           C 2003.33,518.00 2057.33,514.00 2057.33,514.00
             2057.33,514.00 2112.67,509.33 2112.67,509.33
             2112.67,509.33 2182.00,497.33 2182.00,497.33
             2182.00,497.33 2252.67,482.67 2252.67,482.67
             2252.67,482.67 2290.67,470.67 2290.67,470.67
             2290.67,470.67 2338.67,518.00 2338.67,518.00
             2338.67,518.00 2399.33,518.00 2399.33,518.00
             2399.33,518.00 2444.67,522.67 2444.67,522.67
             2444.67,522.67 2516.67,526.00 2516.67,526.00
             2516.67,526.00 2580.00,526.00 2580.00,526.00
             2580.00,526.00 2703.33,522.00 2703.33,522.00
             2703.33,522.00 2800.67,518.00 2800.67,518.00
             2800.67,518.00 2850.00,498.00 2850.00,498.00
             2850.00,498.00 2878.67,476.67 2878.67,476.67
             2878.67,476.67 2896.67,455.33 2896.67,455.33
             2896.67,455.33 2906.67,438.00 2906.67,438.00
             2906.67,438.00 2982.67,498.67 2982.67,498.67
             2982.67,498.67 3037.33,518.00 3037.33,518.00
             3037.33,518.00 3078.00,518.00 3078.00,518.00
             3078.00,518.00 3145.33,505.33 3145.33,505.33
             3145.33,505.33 3193.33,484.67 3193.33,484.67
             3193.33,484.67 3252.00,472.67 3252.00,472.67
             3252.00,472.67 3310.00,476.67 3310.00,476.67
             3310.00,476.67 3364.00,496.00 3364.00,496.00
             3364.00,496.00 3394.00,517.33 3394.00,517.33
             3394.00,517.33 3552.00,517.33 3552.00,517.33
             3552.00,517.33 3602.00,500.00 3602.00,500.00
             3602.00,500.00 3660.00,472.67 3660.00,472.67
             3660.00,472.67 3696.00,456.67 3696.67,456.67
             3697.33,456.67 3766.00,458.00 3766.00,458.00
             3766.00,458.00 3825.33,476.67 3825.33,476.67
             3825.33,476.67 3872.00,496.00 3872.00,496.00
             3872.00,496.00 3908.00,512.67 3908.00,512.67
             3908.00,512.67 3984.00,526.00 3984.00,526.00
             3984.00,526.00 4040.67,524.67 4040.67,524.67
             4040.67,524.67 4080.67,517.33 4080.67,517.33
             4080.67,517.33 4145.33,506.00 4145.33,506.00
             4145.33,506.00 4212.00,508.67 4212.00,508.67
             4212.00,508.67 4260.67,517.33 4260.67,517.33
             4260.67,517.33 4301.33,518.67 4302.00,518.67
             4302.67,518.67 4343.33,518.00 4343.33,518.00" />

  <path id="Finish" class="plain"
        fill="none" stroke="black" stroke-width="1"
        d="M 4342.00,518.00
           C 4342.00,518.00 4996.67,518.00 4996.67,518.00" />

</svg>
