<?xml version="1.0" encoding="UTF-8" standalone="no"?>
<!DOCTYPE svg PUBLIC "-//W3C//DTD SVG 20010904//EN"
              "http://www.w3.org/TR/2001/REC-SVG-20010904/DTD/svg10.dtd">

<svg xmlns="http://www.w3.org/2000/svg"
     width="83.3333in" height="10.6667in"
     viewBox="0 0 6000 768">
  <path id="Terrain" class="plain"
        fill="none" stroke="black" stroke-width="1"
        d="M 3442.00,518.00
           C 3442.00,518.00 3526.00,501.00 3526.00,501.00
             3526.00,501.00 3594.00,479.00 3594.00,479.00
             3594.00,479.00 3665.00,467.00 3665.00,467.00
             3665.00,467.00 3737.00,474.00 3737.00,474.00
             3737.00,474.00 3778.00,483.00 3778.00,483.00
             3778.00,483.00 3850.00,486.00 3850.00,486.00
             3850.00,486.00 3910.00,483.00 3910.00,483.00
             3910.00,483.00 3956.00,483.00 3956.00,483.00
             3956.00,483.00 4025.00,477.00 4025.00,477.00
             4025.00,477.00 4056.00,482.00 4056.00,482.00
             4056.00,482.00 4121.00,488.00 4121.00,488.00
             4121.00,488.00 4299.00,502.00 4299.00,502.00
             4299.00,502.00 4444.00,506.00 4444.00,506.00
             4444.00,506.00 4513.00,510.00 4513.00,510.00
             4513.00,510.00 4670.00,506.00 4670.00,506.00
             4670.00,506.00 4848.00,511.00 4848.00,511.00
             4848.00,511.00 4920.00,515.00 4920.00,515.00
             4920.00,515.00 4979.00,515.00 4979.00,515.00
             4979.00,515.00 5032.00,528.00 5032.00,528.00
             5032.00,528.00 5183.00,521.00 5183.00,521.00
             5183.00,521.00 5211.00,518.00 5211.00,518.00
             5211.00,518.00 5263.00,518.00 5263.00,518.00
             5263.00,518.00 5316.00,518.00 5316.00,518.00
             5316.00,518.00 5500.00,518.00 5500.00,518.00" />
  <path id="Start"  class="plain"
        fill="none" stroke="black" stroke-width="1"
        d="M 500.00,518.00
           C 500.00,518.00 3446.00,518.00 3446.00,518.00" />
  <path id="EndBuilding" class="building1"
        fill="none" stroke="black" stroke-width="1"
        d="M 5885.67,734.33
           C 5885.67,734.33 5885.00,46.00 5885.00,46.00
             5885.00,46.00 5498.33,46.67 5498.33,46.67
             5498.33,46.67 5501.67,733.00 5501.67,733.00
             5501.67,733.00 5886.33,733.67 5886.33,733.67" />
  <path id="StartBuilding" class="building2"
        fill="none" stroke="black" stroke-width="1"
        d="M 501.33,690.67
           C 501.33,690.67 116.67,690.00 116.67,690.00
             116.67,690.00 113.33,3.67 113.33,3.67
             113.33,3.67 500.00,3.00 500.00,3.00
             500.00,3.00 500.67,691.33 500.67,691.33" />
<path id="Bridge2" class="bridge"
        fill="none" stroke="black" stroke-width="1"
        d="M 2135.61,533.13
           C 2135.61,533.13 2158.67,522.18 2158.67,522.18
             2158.67,522.18 2195.79,507.71 2195.79,507.71
             2195.79,507.71 2217.67,501.07 2217.67,501.07
             2217.67,501.07 2242.29,488.16 2242.29,488.16
             2242.29,488.16 2267.69,476.05 2267.69,476.05
             2267.69,476.05 2294.26,463.14 2294.26,463.14
             2294.26,463.14 2319.66,449.46 2319.66,449.46
             2319.66,449.46 2349.75,434.99 2349.75,434.99
             2349.75,434.99 2369.28,426.39 2369.28,426.39
             2369.28,426.39 2429.46,426.78 2429.46,426.78
             2429.46,426.78 2453.30,438.12 2453.30,438.12
             2453.30,438.12 2486.12,454.15 2486.12,454.15
             2486.12,454.15 2516.99,470.18 2516.99,470.18
             2516.99,470.18 2547.86,485.04 2547.86,485.04
             2547.86,485.04 2572.87,496.77 2572.87,496.77
             2572.87,496.77 2606.87,510.45 2606.87,510.45
             2606.87,510.45 2639.69,521.40 2639.69,521.40
             2639.69,521.40 2662.36,529.22 2662.36,529.22
             2662.36,529.22 2662.75,533.91 2662.75,533.91
             2662.75,533.91 2492.76,533.91 2492.76,533.91
             2492.76,533.91 2481.82,540.17 2481.82,540.17
             2481.82,540.17 2462.68,555.81 2462.68,555.81
             2462.68,555.81 2449.00,563.23 2449.00,563.23
             2449.00,563.23 2437.28,567.14 2437.28,567.14
             2437.28,567.14 2425.17,573.01 2425.17,573.01
             2425.17,573.01 2375.15,573.01 2375.15,573.01
             2375.15,573.01 2362.25,567.53 2362.25,567.53
             2362.25,567.53 2346.62,560.50 2346.62,560.50
             2346.62,560.50 2329.82,549.55 2329.82,549.55
             2329.82,549.55 2307.15,533.13 2307.15,533.13
             2307.15,533.13 2136.39,533.52 2136.39,533.52" />
  <path id="Bridge" class="bridge"
        fill="none" stroke="black" stroke-width="1"
        d="M 937.61,533.13
           C 937.61,533.13 960.67,522.18 960.67,522.18
             960.67,522.18 997.79,507.71 997.79,507.71
             997.79,507.71 1019.67,501.07 1019.67,501.07
             1019.67,501.07 1044.29,488.16 1044.29,488.16
             1044.29,488.16 1069.69,476.05 1069.69,476.05
             1069.69,476.05 1096.26,463.14 1096.26,463.14
             1096.26,463.14 1121.66,449.46 1121.66,449.46
             1121.66,449.46 1151.75,434.99 1151.75,434.99
             1151.75,434.99 1171.28,426.39 1171.28,426.39
             1171.28,426.39 1231.46,426.78 1231.46,426.78
             1231.46,426.78 1255.30,438.12 1255.30,438.12
             1255.30,438.12 1288.12,454.15 1288.12,454.15
             1288.12,454.15 1318.99,470.18 1318.99,470.18
             1318.99,470.18 1349.86,485.04 1349.86,485.04
             1349.86,485.04 1374.87,496.77 1374.87,496.77
             1374.87,496.77 1408.87,510.45 1408.87,510.45
             1408.87,510.45 1441.69,521.40 1441.69,521.40
             1441.69,521.40 1464.36,529.22 1464.36,529.22
             1464.36,529.22 1464.75,533.91 1464.75,533.91
             1464.75,533.91 1294.76,533.91 1294.76,533.91
             1294.76,533.91 1283.82,540.17 1283.82,540.17
             1283.82,540.17 1264.68,555.81 1264.68,555.81
             1264.68,555.81 1251.00,563.23 1251.00,563.23
             1251.00,563.23 1239.28,567.14 1239.28,567.14
             1239.28,567.14 1227.17,573.01 1227.17,573.01
             1227.17,573.01 1177.15,573.01 1177.15,573.01
             1177.15,573.01 1164.25,567.53 1164.25,567.53
             1164.25,567.53 1148.62,560.50 1148.62,560.50
             1148.62,560.50 1131.82,549.55 1131.82,549.55
             1131.82,549.55 1109.15,533.13 1109.15,533.13
             1109.15,533.13 938.39,533.52 938.39,533.52" />
<path id="FinishLine" class="finish"
        fill="none" stroke="black" stroke-width="1"
        d="M 5420.00,518.00" />

<path id="coin1" class="coin"
        fill="none" stroke="black" stroke-width="1"
        d="M 1580,518.00" />

<path id="booster1" class="booster"
        fill="none" stroke="black" stroke-width="1"
        d="M 3280,518.00" />

</svg>
