<?xml version="1.0" encoding="UTF-8" standalone="no"?>
<!DOCTYPE svg PUBLIC "-//W3C//DTD SVG 20010904//EN"
              "http://www.w3.org/TR/2001/REC-SVG-20010904/DTD/svg10.dtd">

<svg xmlns="http://www.w3.org/2000/svg"
     width="69.4444in" height="10.6667in"
     viewBox="0 0 5000 768">
  <path id="StartBuilding" class="building1"
        fill="none" stroke="black" stroke-width="1"
        d="M 500.67,691.33
           C 500.67,691.33 500.00,3.00 500.00,3.00
             500.00,3.00 113.33,3.67 113.33,3.67
             113.33,3.67 116.67,690.00 116.67,690.00
             116.67,690.00 501.33,690.67 501.33,690.67" />

  <path id="Start" class="plain"
        fill="none" stroke="black" stroke-width="1"
        d="M 500.00,518.00
           C 500.00,518.00 1516.00,518.00 1516.00,518.00
             1516.00,518.00 2504.00,518.00 2504.00,518.00" />

  <path id="Ramp1" class="little_ramp"
        fill="none" stroke="black" stroke-width="1"
        d="M 1100.00,518.00
           C 1100.00,518.00 1246.00,518.00 1246.00,518.00
             1246.00,518.00 1246.67,452.00 1246.67,452.00
             1246.67,452.00 1100.00,518.00 1100.00,518.00" />

  <path id="Ramp2" class="little_ramp"
        fill="none" stroke="black" stroke-width="1"
        d="M 1626.67,518.00
           C 1626.67,518.00 1940.67,518.00 1940.67,518.00
             1940.67,518.00 1939.33,388.00 1939.33,388.00
             1939.33,388.00 1626.67,518.00 1626.67,518.00" />

  <path id="Bumps" class="plain"
        fill="none" stroke="black" stroke-width="1"
        d="M 2503.33,518.00
           C 2503.33,518.00 2557.33,514.00 2557.33,514.00
             2557.33,514.00 2612.67,509.33 2612.67,509.33
             2612.67,509.33 2682.00,497.33 2682.00,497.33
             2682.00,497.33 2752.67,482.67 2752.67,482.67
             2752.67,482.67 2790.67,470.67 2790.67,470.67
             2790.67,470.67 2838.67,518.00 2838.67,518.00
             2838.67,518.00 2899.33,518.00 2899.33,518.00
             2899.33,518.00 2944.67,522.67 2944.67,522.67
             2944.67,522.67 3016.67,526.00 3016.67,526.00
             3016.67,526.00 3080.00,526.00 3080.00,526.00
             3080.00,526.00 3203.33,522.00 3203.33,522.00
             3203.33,522.00 3300.67,518.00 3300.67,518.00
             3300.67,518.00 3350.00,498.00 3350.00,498.00
             3350.00,498.00 3378.67,476.67 3378.67,476.67
             3378.67,476.67 3396.67,455.33 3396.67,455.33
             3396.67,455.33 3406.67,438.00 3406.67,438.00
             3406.67,438.00 3482.67,498.67 3482.67,498.67
             3482.67,498.67 3537.33,518.00 3537.33,518.00
             3537.33,518.00 3578.00,518.00 3578.00,518.00
             3578.00,518.00 3645.33,505.33 3645.33,505.33
             3645.33,505.33 3693.33,484.67 3693.33,484.67
             3693.33,484.67 3752.00,472.67 3752.00,472.67
             3752.00,472.67 3810.00,476.67 3810.00,476.67
             3810.00,476.67 3864.00,496.00 3864.00,496.00
             3864.00,496.00 3894.00,517.33 3894.00,517.33
             3894.00,517.33 4052.00,517.33 4052.00,517.33
             4052.00,517.33 4102.00,500.00 4102.00,500.00
             4102.00,500.00 4160.00,472.67 4160.00,472.67
             4160.00,472.67 4196.00,456.67 4196.67,456.67
             4197.33,456.67 4266.00,458.00 4266.00,458.00
             4266.00,458.00 4325.33,476.67 4325.33,476.67
             4325.33,476.67 4372.00,496.00 4372.00,496.00
             4372.00,496.00 4408.00,512.67 4408.00,512.67
             4408.00,512.67 4484.00,526.00 4484.00,526.00
             4484.00,526.00 4540.67,524.67 4540.67,524.67
             4540.67,524.67 4580.67,517.33 4580.67,517.33
             4580.67,517.33 4645.33,506.00 4645.33,506.00
             4645.33,506.00 4712.00,508.67 4712.00,508.67
             4712.00,508.67 4760.67,517.33 4760.67,517.33
             4760.67,517.33 4801.33,518.67 4802.00,518.67
             4802.67,518.67 4843.33,518.00 4843.33,518.00" />

  <path id="Finish" class="plain"
        fill="none" stroke="black" stroke-width="1"
        d="M 4842.00,518.00
           C 4842.00,518.00 5496.67,518.00 5496.67,518.00" />

  <path id="EndBuilding" class="building2"
        fill="none" stroke="black" stroke-width="1"
        d="M 5886.33,733.67
           C 5886.33,733.67 5501.67,733.00 5501.67,733.00
             5501.67,733.00 5498.33,46.67 5498.33,46.67
             5498.33,46.67 5885.00,46.00 5885.00,46.00
             5885.00,46.00 5885.67,734.33 5885.67,734.33" />


</svg>
