<?xml version="1.0" encoding="UTF-8" standalone="no"?>
<!DOCTYPE svg PUBLIC "-//W3C//DTD SVG 20010904//EN"
              "http://www.w3.org/TR/2001/REC-SVG-20010904/DTD/svg10.dtd">

<svg xmlns="http://www.w3.org/2000/svg"
     width="8.88889in" height="5.55556in"
     viewBox="0 0 640 400">
  <path id="Path"
        fill="none" stroke="black" stroke-width="1"
        d="M 0.00,1.00
           C 0.00,1.00 35.00,42.00 35.00,42.00
             35.00,42.00 65.00,85.00 65.00,85.00
             65.00,85.00 82.00,124.00 82.00,124.00
             82.00,124.00 121.00,171.00 121.00,171.00
             121.00,171.00 177.00,192.00 177.00,192.00
             177.00,192.00 250.00,194.00 250.00,194.00
             250.00,194.00 322.00,169.00 322.00,169.00
             322.00,169.00 359.00,137.00 359.00,137.00
             359.00,137.00 419.00,99.00 419.00,99.00
             419.00,99.00 473.00,93.00 473.00,93.00
             473.00,93.00 541.00,111.00 541.00,111.00
             541.00,111.00 591.00,170.00 591.00,170.00
             591.00,170.00 638.00,214.00 638.00,214.00" />
</svg>
