<?xml version="1.0" encoding="UTF-8" standalone="no"?>
<!DOCTYPE svg PUBLIC "-//W3C//DTD SVG 20010904//EN"
              "http://www.w3.org/TR/2001/REC-SVG-20010904/DTD/svg10.dtd">

<svg xmlns="http://www.w3.org/2000/svg"
     width="69.4444in" height="10.6667in"
     viewBox="0 0 5000 768">
  <path id="Unnamed" class="plain"
        fill="none" stroke="black" stroke-width="1"
        d="M -100.00,410.00
           C 0.00,410.00 476.00,410.00 476.00,410.00
             476.00,410.00 579.00,401.00 579.00,401.00
             579.00,401.00 629.00,385.00 629.00,385.00
             629.00,385.00 665.00,371.00 665.00,371.00
             665.00,371.00 688.00,358.00 688.00,358.00" />

  <path id="Path" class="plain"
        fill="none" stroke="black" stroke-width="1"
        d="M 815.00,360.00
           C 815.00,360.00 1006.00,382.00 1006.00,382.00
             1006.00,382.00 1060.00,392.00 1060.00,392.00
             1060.00,392.00 1105.00,415.00 1105.00,415.00
             1105.00,415.00 1149.00,447.00 1149.00,447.00
             1149.00,447.00 1213.00,472.00 1213.00,472.00
             1213.00,472.00 1292.00,473.00 1292.00,473.00
             1292.00,473.00 1374.00,473.00 1374.00,473.00
             1374.00,473.00 1476.00,469.00 1476.00,469.00
             1476.00,469.00 1566.00,456.00 1566.00,456.00
             1566.00,456.00 1642.00,434.00 1642.00,434.00
             1642.00,434.00 1702.00,408.00 1702.00,408.00
             1702.00,408.00 1751.00,378.00 1751.00,378.00
             1751.00,378.00 1804.00,332.00 1804.00,332.00" />

  <path id="Path2" class="plain"
        fill="none" stroke="black" stroke-width="1"
        d="M 1930.00,301.00
           C 1930.00,301.00 1977.00,288.00 1977.00,288.00
             1977.00,288.00 2055.00,293.00 2055.00,293.00
             2055.00,293.00 2105.00,316.00 2105.00,316.00
             2105.00,316.00 2178.00,369.00 2178.00,369.00
             2178.00,369.00 2276.00,428.00 2276.00,428.00
             2276.00,428.00 2354.00,456.00 2354.00,456.00
             2354.00,456.00 2501.00,492.00 2501.00,492.00
             2501.00,492.00 2667.00,508.00 2667.00,508.00
             2667.00,508.00 2786.00,510.00 2786.00,510.00
             2786.00,510.00 3094.00,517.00 3094.00,517.00
             3094.00,517.00 3291.00,519.00 3291.00,519.00
             3291.00,519.00 3461.00,517.00 3461.00,517.00
             3461.00,517.00 3597.00,502.00 3597.00,502.00
             3597.00,502.00 3687.00,482.00 3687.00,482.00
             3687.00,482.00 3790.00,448.00 3790.00,448.00
             3790.00,448.00 3882.00,403.00 3882.00,403.00
             3882.00,403.00 3977.00,348.00 3977.00,348.00
             3977.00,348.00 4032.00,330.00 4032.00,330.00
             4032.00,330.00 4096.00,325.00 4096.00,325.00" />

  <path id="bushes" class="bushes"
        fill="none" stroke="black" stroke-width="1"
        d="M 4228.00,410.00
           C 4228.00,410.00 5199.00,410.00 5199.00,410.00" />

  <path id="path4" class="plain"
        fill="none" stroke="black" stroke-width="1"
        d="M 5197.00,410.00
           C 5197.00,410.00 5324.00,403.00 5324.00,403.00
             5324.00,403.00 5485.00,381.00 5485.00,381.00
             5485.00,381.00 5552.00,361.00 5552.00,361.00
             5552.00,361.00 5631.00,330.00 5631.00,330.00
             5631.00,330.00 5722.00,274.00 5722.00,274.00" />

  <path id="path5" class="plain"
        fill="none" stroke="black" stroke-width="1"
        d="M 5894.00,329.00
           C 5894.00,329.00 6107.00,323.00 6107.00,323.00
             6107.00,323.00 6214.00,332.00 6214.00,332.00
             6214.00,332.00 6338.00,355.00 6338.00,355.00
             6338.00,355.00 6478.00,377.00 6478.00,377.00
             6478.00,377.00 6638.00,386.00 6638.00,386.00
             6638.00,386.00 6716.00,382.00 6716.00,382.00
             6716.00,382.00 6812.00,386.00 6812.00,386.00
             6812.00,386.00 6971.00,396.00 6971.00,396.00
             6971.00,396.00 7458.00,400.00 7458.00,400.00
             7458.00,400.00 7620.00,396.00 7620.00,396.00
             7620.00,396.00 7791.00,407.00 7791.00,407.00
             7791.00,407.00 7934.00,441.00 7934.00,441.00
             7934.00,441.00 8113.00,433.00 8113.00,433.00
             8113.00,433.00 8450.00,425.00 8450.00,425.00
             8450.00,425.00 8690.00,411.00 8690.00,411.00
             8690.00,411.00 8863.00,381.00 8863.00,381.00
             8863.00,381.00 8993.00,348.00 8993.00,348.00" />

  <path id="finish" class="plain"
        fill="none" stroke="black" stroke-width="1"
        d="M 9115.00,389.00
           C 9115.00,389.00 9218.00,403.00 9218.00,403.00
             9218.00,403.00 9309.00,413.00 9309.00,413.00
             9309.00,413.00 9382.00,415.00 9382.00,415.00
             9382.00,415.00 9461.00,415.00 9461.00,415.00
             9461.00,415.00 9529.00,415.00 9529.00,415.00
             9529.00,415.00 9616.00,402.00 9616.00,402.00
             9616.00,402.00 9679.00,353.00 9679.00,353.00
             9679.00,353.00 9680.00,172.00 9680.00,172.00
             9680.00,172.00 9738.00,158.00 9738.00,158.00
             9738.00,158.00 9768.00,161.00 9768.00,161.00" />
</svg>
