<?xml version="1.0" encoding="UTF-8" standalone="no"?>
<!DOCTYPE svg PUBLIC "-//W3C//DTD SVG 20010904//EN"
              "http://www.w3.org/TR/2001/REC-SVG-20010904/DTD/svg10.dtd">

<svg xmlns="http://www.w3.org/2000/svg"
     width="8.88889in" height="5.55556in"
     viewBox="0 0 640 400">
  <path id="Unnamed #2"
        fill="none" stroke="black" stroke-width="1"
        d="M 0.00, 0.00
           C 0.00,2.00 17.00,16.00 17.00,16.00
             17.00,16.00 28.00,24.00 29.00,25.00
             30.00,26.00 40.00,38.00 41.00,38.00
             42.00,38.00 55.00,50.00 55.00,52.00
             55.00,54.00 65.00,75.00 66.00,76.00
             67.00,77.00 71.00,91.00 72.00,92.00
             73.00,93.00 79.00,115.00 79.00,116.00
             79.00,117.00 81.00,123.00 83.00,127.00
             85.00,131.00 89.00,141.00 90.00,143.00
             91.00,145.00 94.00,152.00 95.00,153.00
             96.00,154.00 103.00,164.00 105.00,166.00
             107.00,168.00 111.00,173.00 112.00,174.00
             113.00,175.00 122.00,179.00 122.00,179.00
             122.00,179.00 135.00,182.00 136.00,183.00
             137.00,184.00 157.00,187.00 157.00,187.00
             157.00,187.00 179.00,191.00 180.00,191.00
             181.00,191.00 203.00,192.00 203.00,192.00
             203.00,192.00 222.00,192.00 222.00,192.00
             222.00,192.00 239.00,187.00 240.00,187.00
             241.00,187.00 253.00,184.00 254.00,184.00
             255.00,184.00 274.00,174.00 277.00,172.00
             280.00,170.00 295.00,160.00 295.00,160.00
             295.00,160.00 309.00,153.00 311.00,152.00
             313.00,151.00 327.00,147.00 329.00,147.00
             331.00,147.00 352.00,147.00 353.00,147.00
             354.00,147.00 374.00,148.00 374.00,148.00
             374.00,148.00 395.00,157.00 395.00,158.00
             395.00,159.00 410.00,174.00 412.00,175.00
             414.00,176.00 424.00,187.00 426.00,192.00
             428.00,197.00 435.00,215.00 437.00,217.00
             439.00,219.00 450.00,231.00 454.00,236.00
             458.00,241.00 482.00,252.00 482.00,252.00
             482.00,252.00 500.00,255.00 501.00,255.00
             502.00,255.00 528.00,257.00 528.00,257.00
             528.00,257.00 561.00,258.00 561.00,258.00
             561.00,258.00 591.00,255.00 591.00,255.00" />
</svg>
