<?xml version="1.0" encoding="UTF-8" standalone="no"?>
<!DOCTYPE svg PUBLIC "-//W3C//DTD SVG 20010904//EN"
              "http://www.w3.org/TR/2001/REC-SVG-20010904/DTD/svg10.dtd">

<svg xmlns="http://www.w3.org/2000/svg"
     width="8.88889in" height="5.55556in"
     viewBox="0 0 640 400">
  <path id="Path #1"
        fill="none" stroke="black" stroke-width="1"
        d="M 1.00,58.00
           C 1.00,58.00 43.00,91.00 43.00,91.00
             43.00,91.00 77.00,92.00 77.00,92.00
             77.00,92.00 121.00,143.00 121.00,143.00
             121.00,143.00 208.00,183.00 208.00,183.00
             208.00,183.00 307.00,208.00 307.00,208.00
             307.00,208.00 396.00,241.00 396.00,241.00
             396.00,241.00 445.00,285.00 445.00,285.00
             445.00,285.00 525.00,262.00 525.00,262.00
             525.00,262.00 582.00,232.00 582.00,232.00
             582.00,232.00 636.00,193.00 636.00,193.00" />
</svg>
